<svg width="20" height="20" viewBox="0 0 20 20" fill="none" xmlns="http://www.w3.org/2000/svg">
<path opacity="0.536992" fill-rule="evenodd" clip-rule="evenodd" d="M11 0V3.02158C14.1757 3.52518 16.8221 6.44604 16.8221 9.97122C16.8221 10.8777 16.2929 11.6835 15.9753 12.4892L18.6217 14C19.2568 12.7914 19.9978 11.3813 19.9978 9.8705C20.1037 4.73381 16.2929 0.503597 11 0ZM9.60674 16.9849C5.66292 16.9849 3.03371 13.8693 3.03371 9.94975C3.03371 6.43216 5.5618 3.51759 9.60674 3.01508V0C4.55056 0.40201 0 4.72362 0 9.94975C0 15.4774 4.24719 20 9.91011 20C13.2472 20 16.0787 18.392 18 15.8794L15.2697 14.3719C13.9551 15.9799 11.8315 16.9849 9.60674 16.9849Z" fill="#010101"/>
</svg>
